# xmcd
#
# Track frame offsets:
#	150
#	84739
#	147563
#	164727
#
# Disc length: 3875 seconds
#
# Revision: 1
# Processed by: cddbd v1.5.1PL0 Copyright (c) Steve Scherf et al.
# Submitted via: audiograbber 1.83.01
#
DISCID=380f2104
DTITLE=Johnny Winter  - 1978-09-08 - Roslyn,NY  - FM - Disc 2
DYEAR=1900
DGENRE=
TTITLE0=Come On In My Kitchen-J.W. preachin' #3-Come On In My Kitchen-Radio
TTITLE1=Walkin' By Myself
TTITLE2=J.W. preachin' #4
TTITLE3=Radio DJ outro
EXTD=
EXTT0=
EXTT1=
EXTT2=
EXTT3=
PLAYORDER=
